<?xml version="1.0" encoding="utf-8" standalone="no"?>
<!DOCTYPE svg PUBLIC "-//W3C//DTD SVG 1.1//EN" "http://www.w3.org/Graphics/SVG/1.1/DTD/svg11.dtd">
<svg width="600" height="400" version="1.1" xmlns:xlink="http://www.w3.org/1999/xlink" xmlns="http://www.w3.org/2000/svg">
  <polyline points="38.3587,370.947 38.3587,374.947" style="fill:none;stroke:black;stroke-width:1" />
  <polyline points="76.4953,370.947 76.4953,374.947" style="fill:none;stroke:black;stroke-width:1" />
  <polyline points="95.5635,370.947 95.5635,374.947" style="fill:none;stroke:black;stroke-width:1" />
  <polyline points="114.6318,370.947 114.6318,374.947" style="fill:none;stroke:black;stroke-width:1" />
  <polyline points="133.7001,370.947 133.7001,374.947" style="fill:none;stroke:black;stroke-width:1" />
  <polyline points="171.8366,370.947 171.8366,374.947" style="fill:none;stroke:black;stroke-width:1" />
  <polyline points="190.9049,370.947 190.9049,374.947" style="fill:none;stroke:black;stroke-width:1" />
  <polyline points="209.9731,370.947 209.9731,374.947" style="fill:none;stroke:black;stroke-width:1" />
  <polyline points="229.0414,370.947 229.0414,374.947" style="fill:none;stroke:black;stroke-width:1" />
  <polyline points="267.1779,370.947 267.1779,374.947" style="fill:none;stroke:black;stroke-width:1" />
  <polyline points="286.2462,370.947 286.2462,374.947" style="fill:none;stroke:black;stroke-width:1" />
  <polyline points="305.3144,370.947 305.3144,374.947" style="fill:none;stroke:black;stroke-width:1" />
  <polyline points="324.3827,370.947 324.3827,374.947" style="fill:none;stroke:black;stroke-width:1" />
  <polyline points="362.5192,370.947 362.5192,374.947" style="fill:none;stroke:black;stroke-width:1" />
  <polyline points="381.5875,370.947 381.5875,374.947" style="fill:none;stroke:black;stroke-width:1" />
  <polyline points="400.6558,370.947 400.6558,374.947" style="fill:none;stroke:black;stroke-width:1" />
  <polyline points="419.724,370.947 419.724,374.947" style="fill:none;stroke:black;stroke-width:1" />
  <polyline points="457.8606,370.947 457.8606,374.947" style="fill:none;stroke:black;stroke-width:1" />
  <polyline points="476.9288,370.947 476.9288,374.947" style="fill:none;stroke:black;stroke-width:1" />
  <polyline points="495.9971,370.947 495.9971,374.947" style="fill:none;stroke:black;stroke-width:1" />
  <polyline points="515.0654,370.947 515.0654,374.947" style="fill:none;stroke:black;stroke-width:1" />
  <polyline points="553.2019,370.947 553.2019,374.947" style="fill:none;stroke:black;stroke-width:1" />
  <polyline points="572.2701,370.947 572.2701,374.947" style="fill:none;stroke:black;stroke-width:1" />
  <polyline points="591.3384,370.947 591.3384,374.947" style="fill:none;stroke:black;stroke-width:1" />
  <polyline points="34.498,367.1606 30.498,367.1606" style="fill:none;stroke:black;stroke-width:1" />
  <polyline points="34.498,354.8412 30.498,354.8412" style="fill:none;stroke:black;stroke-width:1" />
  <polyline points="34.498,330.2026 30.498,330.2026" style="fill:none;stroke:black;stroke-width:1" />
  <polyline points="34.498,317.8832 30.498,317.8832" style="fill:none;stroke:black;stroke-width:1" />
  <polyline points="34.498,305.5639 30.498,305.5639" style="fill:none;stroke:black;stroke-width:1" />
  <polyline points="34.498,293.2446 30.498,293.2446" style="fill:none;stroke:black;stroke-width:1" />
  <polyline points="34.498,268.6059 30.498,268.6059" style="fill:none;stroke:black;stroke-width:1" />
  <polyline points="34.498,256.2866 30.498,256.2866" style="fill:none;stroke:black;stroke-width:1" />
  <polyline points="34.498,243.9673 30.498,243.9673" style="fill:none;stroke:black;stroke-width:1" />
  <polyline points="34.498,231.6479 30.498,231.6479" style="fill:none;stroke:black;stroke-width:1" />
  <polyline points="34.498,207.0093 30.498,207.0093" style="fill:none;stroke:black;stroke-width:1" />
  <polyline points="34.498,194.6899 30.498,194.6899" style="fill:none;stroke:black;stroke-width:1" />
  <polyline points="34.498,182.3706 30.498,182.3706" style="fill:none;stroke:black;stroke-width:1" />
  <polyline points="34.498,170.0513 30.498,170.0513" style="fill:none;stroke:black;stroke-width:1" />
  <polyline points="34.498,145.4126 30.498,145.4126" style="fill:none;stroke:black;stroke-width:1" />
  <polyline points="34.498,133.0933 30.498,133.0933" style="fill:none;stroke:black;stroke-width:1" />
  <polyline points="34.498,120.774 30.498,120.774" style="fill:none;stroke:black;stroke-width:1" />
  <polyline points="34.498,108.4546 30.498,108.4546" style="fill:none;stroke:black;stroke-width:1" />
  <polyline points="34.498,83.816 30.498,83.816" style="fill:none;stroke:black;stroke-width:1" />
  <polyline points="34.498,71.4967 30.498,71.4967" style="fill:none;stroke:black;stroke-width:1" />
  <polyline points="34.498,59.1773 30.498,59.1773" style="fill:none;stroke:black;stroke-width:1" />
  <polyline points="34.498,46.858 30.498,46.858" style="fill:none;stroke:black;stroke-width:1" />
  <text dominant-baseline="hanging" text-anchor="middle" transform="translate(57.427,381.947)" font-family="Segoe UI" font-size="12" font-weight="400" fill="black">-1.5</text>
  <text dominant-baseline="hanging" text-anchor="middle" transform="translate(152.7683,381.947)" font-family="Segoe UI" font-size="12" font-weight="400" fill="black">-1</text>
  <text dominant-baseline="hanging" text-anchor="middle" transform="translate(248.1097,381.947)" font-family="Segoe UI" font-size="12" font-weight="400" fill="black">-0.5</text>
  <text dominant-baseline="hanging" text-anchor="middle" transform="translate(343.451,381.947)" font-family="Segoe UI" font-size="12" font-weight="400" fill="black">0</text>
  <text dominant-baseline="hanging" text-anchor="middle" transform="translate(438.7923,381.947)" font-family="Segoe UI" font-size="12" font-weight="400" fill="black">0.5</text>
  <text dominant-baseline="hanging" text-anchor="middle" transform="translate(534.1336,381.947)" font-family="Segoe UI" font-size="12" font-weight="400" fill="black">1</text>
  <polyline points="57.427,370.947 57.427,377.947" style="fill:none;stroke:black;stroke-width:1" />
  <polyline points="152.7683,370.947 152.7683,377.947" style="fill:none;stroke:black;stroke-width:1" />
  <polyline points="248.1097,370.947 248.1097,377.947" style="fill:none;stroke:black;stroke-width:1" />
  <polyline points="343.451,370.947 343.451,377.947" style="fill:none;stroke:black;stroke-width:1" />
  <polyline points="438.7923,370.947 438.7923,377.947" style="fill:none;stroke:black;stroke-width:1" />
  <polyline points="534.1336,370.947 534.1336,377.947" style="fill:none;stroke:black;stroke-width:1" />
  <text dominant-baseline="middle" text-anchor="end" transform="translate(23.498,342.5219)" font-family="Segoe UI" font-size="12" font-weight="400" fill="black">-1</text>
  <text dominant-baseline="middle" text-anchor="end" transform="translate(23.498,280.9253)" font-family="Segoe UI" font-size="12" font-weight="400" fill="black">-0.5</text>
  <text dominant-baseline="middle" text-anchor="end" transform="translate(23.498,219.3286)" font-family="Segoe UI" font-size="12" font-weight="400" fill="black">0</text>
  <text dominant-baseline="middle" text-anchor="end" transform="translate(23.498,157.732)" font-family="Segoe UI" font-size="12" font-weight="400" fill="black">0.5</text>
  <text dominant-baseline="middle" text-anchor="end" transform="translate(23.498,96.1353)" font-family="Segoe UI" font-size="12" font-weight="400" fill="black">1</text>
  <text dominant-baseline="middle" text-anchor="end" transform="translate(23.498,34.5387)" font-family="Segoe UI" font-size="12" font-weight="400" fill="black">1.5</text>
  <polyline points="34.498,342.5219 27.498,342.5219" style="fill:none;stroke:black;stroke-width:1" />
  <polyline points="34.498,280.9253 27.498,280.9253" style="fill:none;stroke:black;stroke-width:1" />
  <polyline points="34.498,219.3286 27.498,219.3286" style="fill:none;stroke:black;stroke-width:1" />
  <polyline points="34.498,157.732 27.498,157.732" style="fill:none;stroke:black;stroke-width:1" />
  <polyline points="34.498,96.1353 27.498,96.1353" style="fill:none;stroke:black;stroke-width:1" />
  <polyline points="34.498,34.5387 27.498,34.5387" style="fill:none;stroke:black;stroke-width:1" />
  <ellipse cx="504.6148" cy="259.1515" rx="5" ry="5" style="fill:rgb(255,0,255);stroke:none;" />
  <ellipse cx="379.809" cy="309.3108" rx="5" ry="5" style="fill:rgb(255,0,255);stroke:none;" />
  <ellipse cx="392.2712" cy="292.4875" rx="5" ry="5" style="fill:rgb(255,0,255);stroke:none;" />
  <ellipse cx="443.6005" cy="300.2748" rx="5" ry="5" style="fill:rgb(255,0,255);stroke:none;" />
  <ellipse cx="416.532" cy="187.493" rx="5" ry="5" style="fill:rgb(255,0,255);stroke:none;" />
  <ellipse cx="481.1791" cy="328.6783" rx="5" ry="5" style="fill:rgb(255,0,255);stroke:none;" />
  <ellipse cx="356.0785" cy="283.4008" rx="5" ry="5" style="fill:rgb(255,0,255);stroke:none;" />
  <ellipse cx="271.9869" cy="317.8413" rx="5" ry="5" style="fill:rgb(255,0,255);stroke:none;" />
  <ellipse cx="428.628" cy="298.5226" rx="5" ry="5" style="fill:rgb(255,0,255);stroke:none;" />
  <ellipse cx="366.4933" cy="291.499" rx="5" ry="5" style="fill:rgb(255,0,255);stroke:none;" />
  <ellipse cx="412.4038" cy="343.7932" rx="5" ry="5" style="fill:rgb(255,0,255);stroke:none;" />
  <ellipse cx="455.3094" cy="267.6884" rx="5" ry="5" style="fill:rgb(255,0,255);stroke:none;" />
  <ellipse cx="436.4293" cy="267.1497" rx="5" ry="5" style="fill:rgb(255,0,255);stroke:none;" />
  <ellipse cx="464.4242" cy="298.4755" rx="5" ry="5" style="fill:rgb(255,0,255);stroke:none;" />
  <ellipse cx="420.0553" cy="225.6339" rx="5" ry="5" style="fill:rgb(255,0,255);stroke:none;" />
  <ellipse cx="528.3714" cy="359.8525" rx="5" ry="5" style="fill:rgb(255,0,255);stroke:none;" />
  <ellipse cx="512.8274" cy="347.918" rx="5" ry="5" style="fill:rgb(255,0,255);stroke:none;" />
  <ellipse cx="439.5099" cy="280.3313" rx="5" ry="5" style="fill:rgb(255,0,255);stroke:none;" />
  <ellipse cx="326.051" cy="367.5622" rx="5" ry="5" style="fill:rgb(255,0,255);stroke:none;" />
  <ellipse cx="327.2653" cy="274.8719" rx="5" ry="5" style="fill:rgb(255,0,255);stroke:none;" />
  <ellipse cx="456.2623" cy="236.8165" rx="5" ry="5" style="fill:rgb(255,0,255);stroke:none;" />
  <ellipse cx="408.1694" cy="241.7411" rx="5" ry="5" style="fill:rgb(255,0,255);stroke:none;" />
  <ellipse cx="437.2882" cy="306.1232" rx="5" ry="5" style="fill:rgb(255,0,255);stroke:none;" />
  <ellipse cx="426.5387" cy="261.3189" rx="5" ry="5" style="fill:rgb(255,0,255);stroke:none;" />
  <ellipse cx="364.6843" cy="246.8426" rx="5" ry="5" style="fill:rgb(255,0,255);stroke:none;" />
  <ellipse cx="421.3184" cy="222.8055" rx="5" ry="5" style="fill:rgb(255,0,255);stroke:none;" />
  <ellipse cx="431.5648" cy="259.971" rx="5" ry="5" style="fill:rgb(255,0,255);stroke:none;" />
  <ellipse cx="410.9067" cy="252.5509" rx="5" ry="5" style="fill:rgb(255,0,255);stroke:none;" />
  <ellipse cx="354.9772" cy="275.3334" rx="5" ry="5" style="fill:rgb(255,0,255);stroke:none;" />
  <ellipse cx="373.5194" cy="290.0974" rx="5" ry="5" style="fill:rgb(255,0,255);stroke:none;" />
  <ellipse cx="382.4786" cy="249.9056" rx="5" ry="5" style="fill:rgb(255,0,255);stroke:none;" />
  <ellipse cx="414.5605" cy="262.5106" rx="5" ry="5" style="fill:rgb(255,0,255);stroke:none;" />
  <ellipse cx="382.3941" cy="235.0991" rx="5" ry="5" style="fill:rgb(255,0,255);stroke:none;" />
  <ellipse cx="408.6391" cy="182.5645" rx="5" ry="5" style="fill:rgb(0,169,255);stroke:none;" />
  <ellipse cx="399.6819" cy="117.7444" rx="5" ry="5" style="fill:rgb(0,169,255);stroke:none;" />
  <ellipse cx="419.1386" cy="122.0494" rx="5" ry="5" style="fill:rgb(0,169,255);stroke:none;" />
  <ellipse cx="441.474" cy="66.7686" rx="5" ry="5" style="fill:rgb(0,169,255);stroke:none;" />
  <ellipse cx="454.6212" cy="32.4308" rx="5" ry="5" style="fill:rgb(0,169,255);stroke:none;" />
  <ellipse cx="454.6212" cy="32.4308" rx="5" ry="5" style="fill:rgb(0,169,255);stroke:none;" />
  <ellipse cx="300.937" cy="236.3209" rx="5" ry="5" style="fill:rgb(0,169,255);stroke:none;" />
  <ellipse cx="386.4703" cy="214.6506" rx="5" ry="5" style="fill:rgb(0,169,255);stroke:none;" />
  <ellipse cx="391.8639" cy="207.0095" rx="5" ry="5" style="fill:rgb(0,169,255);stroke:none;" />
  <ellipse cx="365.8908" cy="196.2999" rx="5" ry="5" style="fill:rgb(0,169,255);stroke:none;" />
  <ellipse cx="423.3049" cy="245.7056" rx="5" ry="5" style="fill:rgb(0,169,255);stroke:none;" />
  <ellipse cx="277.1275" cy="255.9875" rx="5" ry="5" style="fill:rgb(0,169,255);stroke:none;" />
  <ellipse cx="138.3225" cy="219.5176" rx="5" ry="5" style="fill:rgb(0,169,255);stroke:none;" />
  <ellipse cx="86.4491" cy="220.5685" rx="5" ry="5" style="fill:rgb(0,169,255);stroke:none;" />
  <ellipse cx="146.9587" cy="237.7426" rx="5" ry="5" style="fill:rgb(0,169,255);stroke:none;" />
  <ellipse cx="215.1989" cy="208.7925" rx="5" ry="5" style="fill:rgb(0,169,255);stroke:none;" />
  <ellipse cx="128.4762" cy="211.0435" rx="5" ry="5" style="fill:rgb(0,169,255);stroke:none;" />
  <ellipse cx="287.2904" cy="211.663" rx="5" ry="5" style="fill:rgb(0,169,255);stroke:none;" />
  <ellipse cx="103.4731" cy="220.7176" rx="5" ry="5" style="fill:rgb(0,169,255);stroke:none;" />
  <ellipse cx="292.3165" cy="210.3151" rx="5" ry="5" style="fill:rgb(0,169,255);stroke:none;" />
  <ellipse cx="235.4171" cy="212.7139" rx="5" ry="5" style="fill:rgb(0,169,255);stroke:none;" />
  <ellipse cx="210.414" cy="222.3881" rx="5" ry="5" style="fill:rgb(0,169,255);stroke:none;" />
  <ellipse cx="74.8672" cy="234.8721" rx="5" ry="5" style="fill:rgb(0,169,255);stroke:none;" />
  <ellipse cx="215.1989" cy="208.7925" rx="5" ry="5" style="fill:rgb(0,169,255);stroke:none;" />
  <ellipse cx="60.236" cy="239.9937" rx="5" ry="5" style="fill:rgb(0,169,255);stroke:none;" />
  <ellipse cx="40.0178" cy="236.0722" rx="5" ry="5" style="fill:rgb(0,169,255);stroke:none;" />
  <ellipse cx="289.2852" cy="211.8836" rx="5" ry="5" style="fill:rgb(0,169,255);stroke:none;" />
  <ellipse cx="212.4088" cy="222.6086" rx="5" ry="5" style="fill:rgb(0,169,255);stroke:none;" />
  <ellipse cx="125.686" cy="224.8597" rx="5" ry="5" style="fill:rgb(0,169,255);stroke:none;" />
  <ellipse cx="289.2852" cy="211.8836" rx="5" ry="5" style="fill:rgb(0,169,255);stroke:none;" />
  <ellipse cx="308.1066" cy="223.9178" rx="5" ry="5" style="fill:rgb(0,169,255);stroke:none;" />
  <ellipse cx="140.3173" cy="219.7381" rx="5" ry="5" style="fill:rgb(0,169,255);stroke:none;" />
  <ellipse cx="217.1937" cy="209.0131" rx="5" ry="5" style="fill:rgb(0,169,255);stroke:none;" />
  <ellipse cx="217.1937" cy="209.0131" rx="5" ry="5" style="fill:rgb(0,169,255);stroke:none;" />
  <ellipse cx="202.5625" cy="214.1346" rx="5" ry="5" style="fill:rgb(0,169,255);stroke:none;" />
  <ellipse cx="289.2852" cy="211.8836" rx="5" ry="5" style="fill:rgb(0,169,255);stroke:none;" />
  <ellipse cx="88.4439" cy="220.7891" rx="5" ry="5" style="fill:rgb(0,169,255);stroke:none;" />
  <ellipse cx="317.729" cy="216.2901" rx="5" ry="5" style="fill:rgb(0,169,255);stroke:none;" />
  <ellipse cx="397.3372" cy="215.2052" rx="5" ry="5" style="fill:rgb(0,169,255);stroke:none;" />
  <ellipse cx="378.5158" cy="203.171" rx="5" ry="5" style="fill:rgb(0,169,255);stroke:none;" />
  <ellipse cx="393.6283" cy="208.4174" rx="5" ry="5" style="fill:rgb(0,169,255);stroke:none;" />
  <ellipse cx="306.6636" cy="218.0966" rx="5" ry="5" style="fill:rgb(0,169,255);stroke:none;" />
  <ellipse cx="376.294" cy="202.2287" rx="5" ry="5" style="fill:rgb(0,169,255);stroke:none;" />
  <ellipse cx="405.5069" cy="143.1771" rx="5" ry="5" style="fill:rgb(0,169,255);stroke:none;" />
  <ellipse cx="400.891" cy="219.0357" rx="5" ry="5" style="fill:rgb(0,169,255);stroke:none;" />
  <ellipse cx="430.0152" cy="55.9346" rx="5" ry="5" style="fill:rgb(0,169,255);stroke:none;" />
  <ellipse cx="388.223" cy="106.9104" rx="5" ry="5" style="fill:rgb(0,169,255);stroke:none;" />
  <ellipse cx="388.223" cy="106.9104" rx="5" ry="5" style="fill:rgb(0,169,255);stroke:none;" />
  <ellipse cx="388.223" cy="106.9104" rx="5" ry="5" style="fill:rgb(0,169,255);stroke:none;" />
  <ellipse cx="430.0152" cy="55.9346" rx="5" ry="5" style="fill:rgb(0,169,255);stroke:none;" />
  <ellipse cx="228.7756" cy="194.7094" rx="5" ry="5" style="fill:rgb(0,169,255);stroke:none;" />
  <ellipse cx="223.9907" cy="208.305" rx="5" ry="5" style="fill:rgb(0,169,255);stroke:none;" />
  <ellipse cx="151.8992" cy="205.4345" rx="5" ry="5" style="fill:rgb(0,169,255);stroke:none;" />
  <ellipse cx="223.9907" cy="208.305" rx="5" ry="5" style="fill:rgb(0,169,255);stroke:none;" />
  <ellipse cx="302.5258" cy="204.8243" rx="5" ry="5" style="fill:rgb(0,169,255);stroke:none;" />
  <ellipse cx="416.8681" cy="90.2724" rx="5" ry="5" style="fill:rgb(0,169,255);stroke:none;" />
  <ellipse cx="416.8681" cy="90.2724" rx="5" ry="5" style="fill:rgb(0,169,255);stroke:none;" />
  <ellipse cx="416.8681" cy="90.2724" rx="5" ry="5" style="fill:rgb(0,169,255);stroke:none;" />
  <ellipse cx="394.5327" cy="145.5532" rx="5" ry="5" style="fill:rgb(0,169,255);stroke:none;" />
  <ellipse cx="289.035" cy="197.2838" rx="5" ry="5" style="fill:rgb(0,169,255);stroke:none;" />
  <ellipse cx="203.7725" cy="204.3836" rx="5" ry="5" style="fill:rgb(0,169,255);stroke:none;" />
  <ellipse cx="586.5348" cy="231.9122" rx="5" ry="5" style="fill:rgb(84,170,0);stroke:none;" />
  <ellipse cx="542.1031" cy="201.4082" rx="5" ry="5" style="fill:rgb(255,0,0);stroke:none;" />
  <ellipse cx="494.6018" cy="158.7016" rx="5" ry="5" style="fill:rgb(255,0,0);stroke:none;" />
  <ellipse cx="449.8966" cy="265.1803" rx="5" ry="5" style="fill:rgb(255,0,0);stroke:none;" />
  <ellipse cx="493.8927" cy="282.6137" rx="5" ry="5" style="fill:rgb(255,0,0);stroke:none;" />
  <ellipse cx="550.196" cy="244.6995" rx="5" ry="5" style="fill:rgb(255,0,0);stroke:none;" />
  <text dominant-baseline="hanging" text-anchor="middle" transform="translate(313.249,8)" font-family="Segoe UI" font-size="18" font-weight="700" fill="black">Customer Segmentation</text>
  <polygon points="34.498,29.0795 592,29.0795 592,370.947 34.498,370.947" style="fill:none;stroke:black;stroke-width:1" />
  <polygon points="509.516,37.0795 584,37.0795 584,93.2915 509.516,93.2915" style="fill:none;stroke:none;" />
  <text dominant-baseline="hanging" text-anchor="start" transform="translate(537.516,45.0795)" font-family="Segoe UI" font-size="12" font-weight="400" fill="black">Cluster: 1</text>
  <ellipse cx="525.516" cy="50.106" rx="5" ry="5" style="fill:rgb(255,0,255);stroke:none;" />
  <text dominant-baseline="hanging" text-anchor="start" transform="translate(537.516,55.1325)" font-family="Segoe UI" font-size="12" font-weight="400" fill="black">Cluster: 2</text>
  <ellipse cx="525.516" cy="60.159" rx="5" ry="5" style="fill:rgb(0,169,255);stroke:none;" />
  <text dominant-baseline="hanging" text-anchor="start" transform="translate(537.516,65.1855)" font-family="Segoe UI" font-size="12" font-weight="400" fill="black">Cluster: 3</text>
  <ellipse cx="525.516" cy="70.212" rx="5" ry="5" style="fill:rgb(84,170,0);stroke:none;" />
  <text dominant-baseline="hanging" text-anchor="start" transform="translate(537.516,75.2385)" font-family="Segoe UI" font-size="12" font-weight="400" fill="black">Cluster: 4</text>
  <ellipse cx="525.516" cy="80.265" rx="5" ry="5" style="fill:rgb(255,0,0);stroke:none;" />
</svg>