<?xml version="1.0" encoding="utf-8" standalone="no"?>
<!DOCTYPE svg PUBLIC "-//W3C//DTD SVG 1.1//EN" "http://www.w3.org/Graphics/SVG/1.1/DTD/svg11.dtd">
<svg width="600" height="400" version="1.1" xmlns:xlink="http://www.w3.org/1999/xlink" xmlns="http://www.w3.org/2000/svg">
  <polyline points="38.5523,370.947 38.5523,374.947" style="fill:none;stroke:black;stroke-width:1" />
  <polyline points="76.7354,370.947 76.7354,374.947" style="fill:none;stroke:black;stroke-width:1" />
  <polyline points="95.8269,370.947 95.8269,374.947" style="fill:none;stroke:black;stroke-width:1" />
  <polyline points="114.9184,370.947 114.9184,374.947" style="fill:none;stroke:black;stroke-width:1" />
  <polyline points="134.01,370.947 134.01,374.947" style="fill:none;stroke:black;stroke-width:1" />
  <polyline points="172.193,370.947 172.193,374.947" style="fill:none;stroke:black;stroke-width:1" />
  <polyline points="191.2846,370.947 191.2846,374.947" style="fill:none;stroke:black;stroke-width:1" />
  <polyline points="210.3761,370.947 210.3761,374.947" style="fill:none;stroke:black;stroke-width:1" />
  <polyline points="229.4676,370.947 229.4676,374.947" style="fill:none;stroke:black;stroke-width:1" />
  <polyline points="267.6507,370.947 267.6507,374.947" style="fill:none;stroke:black;stroke-width:1" />
  <polyline points="286.7422,370.947 286.7422,374.947" style="fill:none;stroke:black;stroke-width:1" />
  <polyline points="305.8338,370.947 305.8338,374.947" style="fill:none;stroke:black;stroke-width:1" />
  <polyline points="324.9253,370.947 324.9253,374.947" style="fill:none;stroke:black;stroke-width:1" />
  <polyline points="363.1084,370.947 363.1084,374.947" style="fill:none;stroke:black;stroke-width:1" />
  <polyline points="382.1999,370.947 382.1999,374.947" style="fill:none;stroke:black;stroke-width:1" />
  <polyline points="401.2914,370.947 401.2914,374.947" style="fill:none;stroke:black;stroke-width:1" />
  <polyline points="420.383,370.947 420.383,374.947" style="fill:none;stroke:black;stroke-width:1" />
  <polyline points="458.566,370.947 458.566,374.947" style="fill:none;stroke:black;stroke-width:1" />
  <polyline points="477.6576,370.947 477.6576,374.947" style="fill:none;stroke:black;stroke-width:1" />
  <polyline points="496.7491,370.947 496.7491,374.947" style="fill:none;stroke:black;stroke-width:1" />
  <polyline points="515.8406,370.947 515.8406,374.947" style="fill:none;stroke:black;stroke-width:1" />
  <polyline points="554.0237,370.947 554.0237,374.947" style="fill:none;stroke:black;stroke-width:1" />
  <polyline points="573.1152,370.947 573.1152,374.947" style="fill:none;stroke:black;stroke-width:1" />
  <polyline points="34.498,367.1197 30.498,367.1197" style="fill:none;stroke:black;stroke-width:1" />
  <polyline points="34.498,354.7837 30.498,354.7837" style="fill:none;stroke:black;stroke-width:1" />
  <polyline points="34.498,330.1116 30.498,330.1116" style="fill:none;stroke:black;stroke-width:1" />
  <polyline points="34.498,317.7756 30.498,317.7756" style="fill:none;stroke:black;stroke-width:1" />
  <polyline points="34.498,305.4396 30.498,305.4396" style="fill:none;stroke:black;stroke-width:1" />
  <polyline points="34.498,293.1036 30.498,293.1036" style="fill:none;stroke:black;stroke-width:1" />
  <polyline points="34.498,268.4315 30.498,268.4315" style="fill:none;stroke:black;stroke-width:1" />
  <polyline points="34.498,256.0955 30.498,256.0955" style="fill:none;stroke:black;stroke-width:1" />
  <polyline points="34.498,243.7595 30.498,243.7595" style="fill:none;stroke:black;stroke-width:1" />
  <polyline points="34.498,231.4235 30.498,231.4235" style="fill:none;stroke:black;stroke-width:1" />
  <polyline points="34.498,206.7514 30.498,206.7514" style="fill:none;stroke:black;stroke-width:1" />
  <polyline points="34.498,194.4154 30.498,194.4154" style="fill:none;stroke:black;stroke-width:1" />
  <polyline points="34.498,182.0794 30.498,182.0794" style="fill:none;stroke:black;stroke-width:1" />
  <polyline points="34.498,169.7434 30.498,169.7434" style="fill:none;stroke:black;stroke-width:1" />
  <polyline points="34.498,145.0713 30.498,145.0713" style="fill:none;stroke:black;stroke-width:1" />
  <polyline points="34.498,132.7353 30.498,132.7353" style="fill:none;stroke:black;stroke-width:1" />
  <polyline points="34.498,120.3993 30.498,120.3993" style="fill:none;stroke:black;stroke-width:1" />
  <polyline points="34.498,108.0633 30.498,108.0633" style="fill:none;stroke:black;stroke-width:1" />
  <polyline points="34.498,83.3912 30.498,83.3912" style="fill:none;stroke:black;stroke-width:1" />
  <polyline points="34.498,71.0552 30.498,71.0552" style="fill:none;stroke:black;stroke-width:1" />
  <polyline points="34.498,58.7192 30.498,58.7192" style="fill:none;stroke:black;stroke-width:1" />
  <polyline points="34.498,46.3832 30.498,46.3832" style="fill:none;stroke:black;stroke-width:1" />
  <text dominant-baseline="hanging" text-anchor="middle" transform="translate(57.6438,381.947)" font-family="Segoe UI" font-size="12" font-weight="400" fill="black">-1.5</text>
  <text dominant-baseline="hanging" text-anchor="middle" transform="translate(153.1015,381.947)" font-family="Segoe UI" font-size="12" font-weight="400" fill="black">-1</text>
  <text dominant-baseline="hanging" text-anchor="middle" transform="translate(248.5592,381.947)" font-family="Segoe UI" font-size="12" font-weight="400" fill="black">-0.5</text>
  <text dominant-baseline="hanging" text-anchor="middle" transform="translate(344.0168,381.947)" font-family="Segoe UI" font-size="12" font-weight="400" fill="black">0</text>
  <text dominant-baseline="hanging" text-anchor="middle" transform="translate(439.4745,381.947)" font-family="Segoe UI" font-size="12" font-weight="400" fill="black">0.5</text>
  <text dominant-baseline="hanging" text-anchor="middle" transform="translate(534.9322,381.947)" font-family="Segoe UI" font-size="12" font-weight="400" fill="black">1</text>
  <polyline points="57.6438,370.947 57.6438,377.947" style="fill:none;stroke:black;stroke-width:1" />
  <polyline points="153.1015,370.947 153.1015,377.947" style="fill:none;stroke:black;stroke-width:1" />
  <polyline points="248.5592,370.947 248.5592,377.947" style="fill:none;stroke:black;stroke-width:1" />
  <polyline points="344.0168,370.947 344.0168,377.947" style="fill:none;stroke:black;stroke-width:1" />
  <polyline points="439.4745,370.947 439.4745,377.947" style="fill:none;stroke:black;stroke-width:1" />
  <polyline points="534.9322,370.947 534.9322,377.947" style="fill:none;stroke:black;stroke-width:1" />
  <text dominant-baseline="middle" text-anchor="end" transform="translate(23.498,342.4477)" font-family="Segoe UI" font-size="12" font-weight="400" fill="black">-1</text>
  <text dominant-baseline="middle" text-anchor="end" transform="translate(23.498,280.7676)" font-family="Segoe UI" font-size="12" font-weight="400" fill="black">-0.5</text>
  <text dominant-baseline="middle" text-anchor="end" transform="translate(23.498,219.0875)" font-family="Segoe UI" font-size="12" font-weight="400" fill="black">0</text>
  <text dominant-baseline="middle" text-anchor="end" transform="translate(23.498,157.4074)" font-family="Segoe UI" font-size="12" font-weight="400" fill="black">0.5</text>
  <text dominant-baseline="middle" text-anchor="end" transform="translate(23.498,95.7272)" font-family="Segoe UI" font-size="12" font-weight="400" fill="black">1</text>
  <text dominant-baseline="middle" text-anchor="end" transform="translate(23.498,34.0471)" font-family="Segoe UI" font-size="12" font-weight="400" fill="black">1.5</text>
  <polyline points="34.498,342.4477 27.498,342.4477" style="fill:none;stroke:black;stroke-width:1" />
  <polyline points="34.498,280.7676 27.498,280.7676" style="fill:none;stroke:black;stroke-width:1" />
  <polyline points="34.498,219.0875 27.498,219.0875" style="fill:none;stroke:black;stroke-width:1" />
  <polyline points="34.498,157.4074 27.498,157.4074" style="fill:none;stroke:black;stroke-width:1" />
  <polyline points="34.498,95.7272 27.498,95.7272" style="fill:none;stroke:black;stroke-width:1" />
  <polyline points="34.498,34.0471 27.498,34.0471" style="fill:none;stroke:black;stroke-width:1" />
  <ellipse cx="448.2379" cy="266.2257" rx="5" ry="5" style="fill:rgb(255,0,255);stroke:none;" />
  <ellipse cx="526.9369" cy="361.3547" rx="5" ry="5" style="fill:rgb(255,0,255);stroke:none;" />
  <ellipse cx="326.4953" cy="275.7094" rx="5" ry="5" style="fill:rgb(255,0,255);stroke:none;" />
  <ellipse cx="437.1998" cy="308.3426" rx="5" ry="5" style="fill:rgb(255,0,255);stroke:none;" />
  <ellipse cx="482.7323" cy="329.3428" rx="5" ry="5" style="fill:rgb(72,0,255);stroke:none;" />
  <ellipse cx="356.4565" cy="283.4596" rx="5" ry="5" style="fill:rgb(72,0,255);stroke:none;" />
  <ellipse cx="272.7967" cy="316.9528" rx="5" ry="5" style="fill:rgb(72,0,255);stroke:none;" />
  <ellipse cx="429.9241" cy="298.6422" rx="5" ry="5" style="fill:rgb(72,0,255);stroke:none;" />
  <ellipse cx="412.7014" cy="344.3151" rx="5" ry="5" style="fill:rgb(72,0,255);stroke:none;" />
  <ellipse cx="438.024" cy="267.3977" rx="5" ry="5" style="fill:rgb(72,0,255);stroke:none;" />
  <ellipse cx="464.9072" cy="299.3997" rx="5" ry="5" style="fill:rgb(72,0,255);stroke:none;" />
  <ellipse cx="325.6268" cy="367.5622" rx="5" ry="5" style="fill:rgb(72,0,255);stroke:none;" />
  <ellipse cx="407.5862" cy="241.3888" rx="5" ry="5" style="fill:rgb(72,0,255);stroke:none;" />
  <ellipse cx="373.7163" cy="291.7729" rx="5" ry="5" style="fill:rgb(72,0,255);stroke:none;" />
  <ellipse cx="381.792" cy="250.4748" rx="5" ry="5" style="fill:rgb(72,0,255);stroke:none;" />
  <ellipse cx="415.6556" cy="262.8964" rx="5" ry="5" style="fill:rgb(72,0,255);stroke:none;" />
  <ellipse cx="382.2545" cy="235.5629" rx="5" ry="5" style="fill:rgb(72,0,255);stroke:none;" />
  <ellipse cx="417.5854" cy="187.8912" rx="5" ry="5" style="fill:rgb(0,109,255);stroke:none;" />
  <ellipse cx="368.1956" cy="291.39" rx="5" ry="5" style="fill:rgb(0,109,255);stroke:none;" />
  <ellipse cx="454.2687" cy="269.9747" rx="5" ry="5" style="fill:rgb(0,109,255);stroke:none;" />
  <ellipse cx="317.4287" cy="213.4505" rx="5" ry="5" style="fill:rgb(0,109,255);stroke:none;" />
  <ellipse cx="457.6748" cy="235.581" rx="5" ry="5" style="fill:rgb(0,109,255);stroke:none;" />
  <ellipse cx="427.328" cy="262.2745" rx="5" ry="5" style="fill:rgb(0,109,255);stroke:none;" />
  <ellipse cx="306.9999" cy="217.5707" rx="5" ry="5" style="fill:rgb(0,109,255);stroke:none;" />
  <ellipse cx="432.7069" cy="261.7904" rx="5" ry="5" style="fill:rgb(0,109,255);stroke:none;" />
  <ellipse cx="411.4769" cy="253.0731" rx="5" ry="5" style="fill:rgb(0,109,255);stroke:none;" />
  <ellipse cx="376.3196" cy="202.631" rx="5" ry="5" style="fill:rgb(0,109,255);stroke:none;" />
  <ellipse cx="353.3927" cy="274.1324" rx="5" ry="5" style="fill:rgb(0,109,255);stroke:none;" />
  <ellipse cx="409.5833" cy="181.7742" rx="5" ry="5" style="fill:rgb(0,236,218);stroke:none;" />
  <ellipse cx="401.938" cy="116.7797" rx="5" ry="5" style="fill:rgb(0,236,218);stroke:none;" />
  <ellipse cx="421.7179" cy="122.2675" rx="5" ry="5" style="fill:rgb(0,236,218);stroke:none;" />
  <ellipse cx="444.7503" cy="66.7867" rx="5" ry="5" style="fill:rgb(0,236,218);stroke:none;" />
  <ellipse cx="458.1956" cy="32.4308" rx="5" ry="5" style="fill:rgb(0,236,218);stroke:none;" />
  <ellipse cx="458.1956" cy="32.4308" rx="5" ry="5" style="fill:rgb(0,236,218);stroke:none;" />
  <ellipse cx="386.8253" cy="214.983" rx="5" ry="5" style="fill:rgb(0,236,218);stroke:none;" />
  <ellipse cx="390.9083" cy="206.7972" rx="5" ry="5" style="fill:rgb(0,236,218);stroke:none;" />
  <ellipse cx="365.9765" cy="196.2933" rx="5" ry="5" style="fill:rgb(0,236,218);stroke:none;" />
  <ellipse cx="290.4607" cy="210.7883" rx="5" ry="5" style="fill:rgb(0,236,218);stroke:none;" />
  <ellipse cx="290.4607" cy="210.7883" rx="5" ry="5" style="fill:rgb(0,236,218);stroke:none;" />
  <ellipse cx="309.9344" cy="222.7077" rx="5" ry="5" style="fill:rgb(0,236,218);stroke:none;" />
  <ellipse cx="290.4607" cy="210.7883" rx="5" ry="5" style="fill:rgb(0,236,218);stroke:none;" />
  <ellipse cx="398.2963" cy="213.9471" rx="5" ry="5" style="fill:rgb(0,236,218);stroke:none;" />
  <ellipse cx="378.8226" cy="202.0277" rx="5" ry="5" style="fill:rgb(0,236,218);stroke:none;" />
  <ellipse cx="393.7585" cy="207.1935" rx="5" ry="5" style="fill:rgb(0,236,218);stroke:none;" />
  <ellipse cx="408.0092" cy="144.4959" rx="5" ry="5" style="fill:rgb(0,236,218);stroke:none;" />
  <ellipse cx="400.3279" cy="218.2709" rx="5" ry="5" style="fill:rgb(0,236,218);stroke:none;" />
  <ellipse cx="432.7809" cy="56.372" rx="5" ry="5" style="fill:rgb(0,236,218);stroke:none;" />
  <ellipse cx="389.9686" cy="106.365" rx="5" ry="5" style="fill:rgb(0,236,218);stroke:none;" />
  <ellipse cx="389.9686" cy="106.365" rx="5" ry="5" style="fill:rgb(0,236,218);stroke:none;" />
  <ellipse cx="389.9686" cy="106.365" rx="5" ry="5" style="fill:rgb(0,236,218);stroke:none;" />
  <ellipse cx="432.7809" cy="56.372" rx="5" ry="5" style="fill:rgb(0,236,218);stroke:none;" />
  <ellipse cx="304.1421" cy="204.9956" rx="5" ry="5" style="fill:rgb(0,236,218);stroke:none;" />
  <ellipse cx="419.3355" cy="90.7278" rx="5" ry="5" style="fill:rgb(0,236,218);stroke:none;" />
  <ellipse cx="419.3355" cy="90.7278" rx="5" ry="5" style="fill:rgb(0,236,218);stroke:none;" />
  <ellipse cx="419.3355" cy="90.7278" rx="5" ry="5" style="fill:rgb(0,236,218);stroke:none;" />
  <ellipse cx="396.3032" cy="146.2087" rx="5" ry="5" style="fill:rgb(0,236,218);stroke:none;" />
  <ellipse cx="541.7249" cy="202.1308" rx="5" ry="5" style="fill:rgb(0,146,36);stroke:none;" />
  <ellipse cx="497.1791" cy="159.5116" rx="5" ry="5" style="fill:rgb(0,146,36);stroke:none;" />
  <ellipse cx="492.059" cy="281.9863" rx="5" ry="5" style="fill:rgb(0,146,36);stroke:none;" />
  <ellipse cx="586.5348" cy="231.591" rx="5" ry="5" style="fill:rgb(0,146,36);stroke:none;" />
  <ellipse cx="549.1467" cy="246.082" rx="5" ry="5" style="fill:rgb(0,146,36);stroke:none;" />
  <ellipse cx="505.3256" cy="259.4122" rx="5" ry="5" style="fill:rgb(145,200,0);stroke:none;" />
  <ellipse cx="377.9861" cy="309.9232" rx="5" ry="5" style="fill:rgb(145,200,0);stroke:none;" />
  <ellipse cx="390.0905" cy="293.6765" rx="5" ry="5" style="fill:rgb(145,200,0);stroke:none;" />
  <ellipse cx="442.0806" cy="301.6126" rx="5" ry="5" style="fill:rgb(145,200,0);stroke:none;" />
  <ellipse cx="420.8805" cy="224.2788" rx="5" ry="5" style="fill:rgb(255,182,0);stroke:none;" />
  <ellipse cx="512.2596" cy="347.2342" rx="5" ry="5" style="fill:rgb(255,182,0);stroke:none;" />
  <ellipse cx="423.2032" cy="245.0077" rx="5" ry="5" style="fill:rgb(255,182,0);stroke:none;" />
  <ellipse cx="439.8272" cy="279.2237" rx="5" ry="5" style="fill:rgb(255,182,0);stroke:none;" />
  <ellipse cx="364.2085" cy="247.3333" rx="5" ry="5" style="fill:rgb(255,182,0);stroke:none;" />
  <ellipse cx="422.2812" cy="220.6038" rx="5" ry="5" style="fill:rgb(255,182,0);stroke:none;" />
  <ellipse cx="302.0919" cy="235.9653" rx="5" ry="5" style="fill:rgb(255,0,0);stroke:none;" />
  <ellipse cx="279.4499" cy="256.0047" rx="5" ry="5" style="fill:rgb(255,0,0);stroke:none;" />
  <ellipse cx="137.1684" cy="218.4082" rx="5" ry="5" style="fill:rgb(255,0,0);stroke:none;" />
  <ellipse cx="85.9392" cy="219.8429" rx="5" ry="5" style="fill:rgb(255,0,0);stroke:none;" />
  <ellipse cx="147.153" cy="235.449" rx="5" ry="5" style="fill:rgb(255,0,0);stroke:none;" />
  <ellipse cx="214.8055" cy="208.3367" rx="5" ry="5" style="fill:rgb(255,0,0);stroke:none;" />
  <ellipse cx="129.4559" cy="210.3574" rx="5" ry="5" style="fill:rgb(255,0,0);stroke:none;" />
  <ellipse cx="287.8203" cy="210.791" rx="5" ry="5" style="fill:rgb(255,0,0);stroke:none;" />
  <ellipse cx="103.048" cy="218.9941" rx="5" ry="5" style="fill:rgb(255,0,0);stroke:none;" />
  <ellipse cx="293.1992" cy="210.3069" rx="5" ry="5" style="fill:rgb(255,0,0);stroke:none;" />
  <ellipse cx="236.5911" cy="212.2258" rx="5" ry="5" style="fill:rgb(255,0,0);stroke:none;" />
  <ellipse cx="210.1832" cy="220.8624" rx="5" ry="5" style="fill:rgb(255,0,0);stroke:none;" />
  <ellipse cx="74.1383" cy="232.9947" rx="5" ry="5" style="fill:rgb(255,0,0);stroke:none;" />
  <ellipse cx="214.8055" cy="208.3367" rx="5" ry="5" style="fill:rgb(255,0,0);stroke:none;" />
  <ellipse cx="61.8034" cy="237.4697" rx="5" ry="5" style="fill:rgb(255,0,0);stroke:none;" />
  <ellipse cx="40.0178" cy="233.5807" rx="5" ry="5" style="fill:rgb(255,0,0);stroke:none;" />
  <ellipse cx="212.8236" cy="220.8598" rx="5" ry="5" style="fill:rgb(255,0,0);stroke:none;" />
  <ellipse cx="127.474" cy="222.8805" rx="5" ry="5" style="fill:rgb(255,0,0);stroke:none;" />
  <ellipse cx="139.8088" cy="218.4055" rx="5" ry="5" style="fill:rgb(255,0,0);stroke:none;" />
  <ellipse cx="217.4459" cy="208.3341" rx="5" ry="5" style="fill:rgb(255,0,0);stroke:none;" />
  <ellipse cx="217.4459" cy="208.3341" rx="5" ry="5" style="fill:rgb(255,0,0);stroke:none;" />
  <ellipse cx="205.1111" cy="212.8091" rx="5" ry="5" style="fill:rgb(255,0,0);stroke:none;" />
  <ellipse cx="88.5796" cy="219.8403" rx="5" ry="5" style="fill:rgb(255,0,0);stroke:none;" />
  <ellipse cx="229.2469" cy="195.1823" rx="5" ry="5" style="fill:rgb(255,0,0);stroke:none;" />
  <ellipse cx="224.6245" cy="207.708" rx="5" ry="5" style="fill:rgb(255,0,0);stroke:none;" />
  <ellipse cx="151.6097" cy="205.2537" rx="5" ry="5" style="fill:rgb(255,0,0);stroke:none;" />
  <ellipse cx="224.6245" cy="207.708" rx="5" ry="5" style="fill:rgb(255,0,0);stroke:none;" />
  <ellipse cx="288.0098" cy="198.0807" rx="5" ry="5" style="fill:rgb(255,0,0);stroke:none;" />
  <ellipse cx="202.839" cy="203.819" rx="5" ry="5" style="fill:rgb(255,0,0);stroke:none;" />
  <text dominant-baseline="hanging" text-anchor="middle" transform="translate(313.249,8)" font-family="Segoe UI" font-size="18" font-weight="700" fill="black">Customer Segmentation</text>
  <polygon points="34.498,29.0795 592,29.0795 592,370.947 34.498,370.947" style="fill:none;stroke:black;stroke-width:1" />
  <polygon points="509.516,37.0795 584,37.0795 584,133.5035 509.516,133.5035" style="fill:none;stroke:none;" />
  <text dominant-baseline="hanging" text-anchor="start" transform="translate(537.516,45.0795)" font-family="Segoe UI" font-size="12" font-weight="400" fill="black">Cluster: 1</text>
  <ellipse cx="525.516" cy="50.106" rx="5" ry="5" style="fill:rgb(255,0,255);stroke:none;" />
  <text dominant-baseline="hanging" text-anchor="start" transform="translate(537.516,55.1325)" font-family="Segoe UI" font-size="12" font-weight="400" fill="black">Cluster: 2</text>
  <ellipse cx="525.516" cy="60.159" rx="5" ry="5" style="fill:rgb(72,0,255);stroke:none;" />
  <text dominant-baseline="hanging" text-anchor="start" transform="translate(537.516,65.1855)" font-family="Segoe UI" font-size="12" font-weight="400" fill="black">Cluster: 3</text>
  <ellipse cx="525.516" cy="70.212" rx="5" ry="5" style="fill:rgb(0,109,255);stroke:none;" />
  <text dominant-baseline="hanging" text-anchor="start" transform="translate(537.516,75.2385)" font-family="Segoe UI" font-size="12" font-weight="400" fill="black">Cluster: 4</text>
  <ellipse cx="525.516" cy="80.265" rx="5" ry="5" style="fill:rgb(0,236,218);stroke:none;" />
  <text dominant-baseline="hanging" text-anchor="start" transform="translate(537.516,85.2915)" font-family="Segoe UI" font-size="12" font-weight="400" fill="black">Cluster: 5</text>
  <ellipse cx="525.516" cy="90.318" rx="5" ry="5" style="fill:rgb(0,146,36);stroke:none;" />
  <text dominant-baseline="hanging" text-anchor="start" transform="translate(537.516,95.3445)" font-family="Segoe UI" font-size="12" font-weight="400" fill="black">Cluster: 6</text>
  <ellipse cx="525.516" cy="100.371" rx="5" ry="5" style="fill:rgb(145,200,0);stroke:none;" />
  <text dominant-baseline="hanging" text-anchor="start" transform="translate(537.516,105.3975)" font-family="Segoe UI" font-size="12" font-weight="400" fill="black">Cluster: 7</text>
  <ellipse cx="525.516" cy="110.424" rx="5" ry="5" style="fill:rgb(255,182,0);stroke:none;" />
  <text dominant-baseline="hanging" text-anchor="start" transform="translate(537.516,115.4505)" font-family="Segoe UI" font-size="12" font-weight="400" fill="black">Cluster: 8</text>
  <ellipse cx="525.516" cy="120.477" rx="5" ry="5" style="fill:rgb(255,0,0);stroke:none;" />
</svg>