<?xml version="1.0" encoding="utf-8" standalone="no"?>
<!DOCTYPE svg PUBLIC "-//W3C//DTD SVG 1.1//EN" "http://www.w3.org/Graphics/SVG/1.1/DTD/svg11.dtd">
<svg width="600" height="400" version="1.1" xmlns:xlink="http://www.w3.org/1999/xlink" xmlns="http://www.w3.org/2000/svg">
  <polyline points="34.498,370.947 34.498,374.947" style="fill:none;stroke:black;stroke-width:1" />
  <polyline points="53.642,370.947 53.642,374.947" style="fill:none;stroke:black;stroke-width:1" />
  <polyline points="72.7212,370.947 72.7212,374.947" style="fill:none;stroke:black;stroke-width:1" />
  <polyline points="110.8798,370.947 110.8798,374.947" style="fill:none;stroke:black;stroke-width:1" />
  <polyline points="129.959,370.947 129.959,374.947" style="fill:none;stroke:black;stroke-width:1" />
  <polyline points="149.0383,370.947 149.0383,374.947" style="fill:none;stroke:black;stroke-width:1" />
  <polyline points="168.1176,370.947 168.1176,374.947" style="fill:none;stroke:black;stroke-width:1" />
  <polyline points="206.2761,370.947 206.2761,374.947" style="fill:none;stroke:black;stroke-width:1" />
  <polyline points="225.3554,370.947 225.3554,374.947" style="fill:none;stroke:black;stroke-width:1" />
  <polyline points="244.4346,370.947 244.4346,374.947" style="fill:none;stroke:black;stroke-width:1" />
  <polyline points="263.5139,370.947 263.5139,374.947" style="fill:none;stroke:black;stroke-width:1" />
  <polyline points="301.6724,370.947 301.6724,374.947" style="fill:none;stroke:black;stroke-width:1" />
  <polyline points="320.7517,370.947 320.7517,374.947" style="fill:none;stroke:black;stroke-width:1" />
  <polyline points="339.831,370.947 339.831,374.947" style="fill:none;stroke:black;stroke-width:1" />
  <polyline points="358.9102,370.947 358.9102,374.947" style="fill:none;stroke:black;stroke-width:1" />
  <polyline points="397.0688,370.947 397.0688,374.947" style="fill:none;stroke:black;stroke-width:1" />
  <polyline points="416.148,370.947 416.148,374.947" style="fill:none;stroke:black;stroke-width:1" />
  <polyline points="435.2273,370.947 435.2273,374.947" style="fill:none;stroke:black;stroke-width:1" />
  <polyline points="454.3066,370.947 454.3066,374.947" style="fill:none;stroke:black;stroke-width:1" />
  <polyline points="492.4651,370.947 492.4651,374.947" style="fill:none;stroke:black;stroke-width:1" />
  <polyline points="511.5444,370.947 511.5444,374.947" style="fill:none;stroke:black;stroke-width:1" />
  <polyline points="530.6236,370.947 530.6236,374.947" style="fill:none;stroke:black;stroke-width:1" />
  <polyline points="549.7029,370.947 549.7029,374.947" style="fill:none;stroke:black;stroke-width:1" />
  <polyline points="587.8614,370.947 587.8614,374.947" style="fill:none;stroke:black;stroke-width:1" />
  <polyline points="34.498,352.3333 30.498,352.3333" style="fill:none;stroke:black;stroke-width:1" />
  <polyline points="34.498,340.0528 30.498,340.0528" style="fill:none;stroke:black;stroke-width:1" />
  <polyline points="34.498,327.7724 30.498,327.7724" style="fill:none;stroke:black;stroke-width:1" />
  <polyline points="34.498,315.492 30.498,315.492" style="fill:none;stroke:black;stroke-width:1" />
  <polyline points="34.498,290.9311 30.498,290.9311" style="fill:none;stroke:black;stroke-width:1" />
  <polyline points="34.498,278.6506 30.498,278.6506" style="fill:none;stroke:black;stroke-width:1" />
  <polyline points="34.498,266.3702 30.498,266.3702" style="fill:none;stroke:black;stroke-width:1" />
  <polyline points="34.498,254.0898 30.498,254.0898" style="fill:none;stroke:black;stroke-width:1" />
  <polyline points="34.498,229.5289 30.498,229.5289" style="fill:none;stroke:black;stroke-width:1" />
  <polyline points="34.498,217.2484 30.498,217.2484" style="fill:none;stroke:black;stroke-width:1" />
  <polyline points="34.498,204.968 30.498,204.968" style="fill:none;stroke:black;stroke-width:1" />
  <polyline points="34.498,192.6876 30.498,192.6876" style="fill:none;stroke:black;stroke-width:1" />
  <polyline points="34.498,168.1267 30.498,168.1267" style="fill:none;stroke:black;stroke-width:1" />
  <polyline points="34.498,155.8463 30.498,155.8463" style="fill:none;stroke:black;stroke-width:1" />
  <polyline points="34.498,143.5658 30.498,143.5658" style="fill:none;stroke:black;stroke-width:1" />
  <polyline points="34.498,131.2854 30.498,131.2854" style="fill:none;stroke:black;stroke-width:1" />
  <polyline points="34.498,106.7245 30.498,106.7245" style="fill:none;stroke:black;stroke-width:1" />
  <polyline points="34.498,94.4441 30.498,94.4441" style="fill:none;stroke:black;stroke-width:1" />
  <polyline points="34.498,82.1636 30.498,82.1636" style="fill:none;stroke:black;stroke-width:1" />
  <polyline points="34.498,69.8832 30.498,69.8832" style="fill:none;stroke:black;stroke-width:1" />
  <polyline points="34.498,45.3223 30.498,45.3223" style="fill:none;stroke:black;stroke-width:1" />
  <polyline points="34.498,33.0419 30.498,33.0419" style="fill:none;stroke:black;stroke-width:1" />
  <text dominant-baseline="hanging" text-anchor="middle" transform="translate(91.8005,381.947)" font-family="Segoe UI" font-size="12" font-weight="400" fill="black">-1</text>
  <text dominant-baseline="hanging" text-anchor="middle" transform="translate(187.1968,381.947)" font-family="Segoe UI" font-size="12" font-weight="400" fill="black">-0.5</text>
  <text dominant-baseline="hanging" text-anchor="middle" transform="translate(282.5932,381.947)" font-family="Segoe UI" font-size="12" font-weight="400" fill="black">0</text>
  <text dominant-baseline="hanging" text-anchor="middle" transform="translate(377.9895,381.947)" font-family="Segoe UI" font-size="12" font-weight="400" fill="black">0.5</text>
  <text dominant-baseline="hanging" text-anchor="middle" transform="translate(473.3858,381.947)" font-family="Segoe UI" font-size="12" font-weight="400" fill="black">1</text>
  <text dominant-baseline="hanging" text-anchor="middle" transform="translate(568.7822,381.947)" font-family="Segoe UI" font-size="12" font-weight="400" fill="black">1.5</text>
  <polyline points="91.8005,370.947 91.8005,377.947" style="fill:none;stroke:black;stroke-width:1" />
  <polyline points="187.1968,370.947 187.1968,377.947" style="fill:none;stroke:black;stroke-width:1" />
  <polyline points="282.5932,370.947 282.5932,377.947" style="fill:none;stroke:black;stroke-width:1" />
  <polyline points="377.9895,370.947 377.9895,377.947" style="fill:none;stroke:black;stroke-width:1" />
  <polyline points="473.3858,370.947 473.3858,377.947" style="fill:none;stroke:black;stroke-width:1" />
  <polyline points="568.7822,370.947 568.7822,377.947" style="fill:none;stroke:black;stroke-width:1" />
  <text dominant-baseline="middle" text-anchor="end" transform="translate(23.498,364.6137)" font-family="Segoe UI" font-size="12" font-weight="400" fill="black">-1.5</text>
  <text dominant-baseline="middle" text-anchor="end" transform="translate(23.498,303.2115)" font-family="Segoe UI" font-size="12" font-weight="400" fill="black">-1</text>
  <text dominant-baseline="middle" text-anchor="end" transform="translate(23.498,241.8093)" font-family="Segoe UI" font-size="12" font-weight="400" fill="black">-0.5</text>
  <text dominant-baseline="middle" text-anchor="end" transform="translate(23.498,180.4071)" font-family="Segoe UI" font-size="12" font-weight="400" fill="black">0</text>
  <text dominant-baseline="middle" text-anchor="end" transform="translate(23.498,119.0049)" font-family="Segoe UI" font-size="12" font-weight="400" fill="black">0.5</text>
  <text dominant-baseline="middle" text-anchor="end" transform="translate(23.498,57.6027)" font-family="Segoe UI" font-size="12" font-weight="400" fill="black">1</text>
  <polyline points="34.498,364.6137 27.498,364.6137" style="fill:none;stroke:black;stroke-width:1" />
  <polyline points="34.498,303.2115 27.498,303.2115" style="fill:none;stroke:black;stroke-width:1" />
  <polyline points="34.498,241.8093 27.498,241.8093" style="fill:none;stroke:black;stroke-width:1" />
  <polyline points="34.498,180.4071 27.498,180.4071" style="fill:none;stroke:black;stroke-width:1" />
  <polyline points="34.498,119.0049 27.498,119.0049" style="fill:none;stroke:black;stroke-width:1" />
  <polyline points="34.498,57.6027 27.498,57.6027" style="fill:none;stroke:black;stroke-width:1" />
  <ellipse cx="218.2789" cy="218.8392" rx="5" ry="5" style="fill:rgb(255,0,255);stroke:none;" />
  <ellipse cx="133.3804" cy="235.12" rx="5" ry="5" style="fill:rgb(255,0,255);stroke:none;" />
  <ellipse cx="227.8013" cy="284.2351" rx="5" ry="5" style="fill:rgb(255,0,255);stroke:none;" />
  <ellipse cx="208.042" cy="277.1986" rx="5" ry="5" style="fill:rgb(255,0,255);stroke:none;" />
  <ellipse cx="186.6819" cy="333.0146" rx="5" ry="5" style="fill:rgb(255,0,255);stroke:none;" />
  <ellipse cx="174.381" cy="367.5622" rx="5" ry="5" style="fill:rgb(255,0,255);stroke:none;" />
  <ellipse cx="174.381" cy="367.5622" rx="5" ry="5" style="fill:rgb(255,0,255);stroke:none;" />
  <ellipse cx="325.09" cy="160.2788" rx="5" ry="5" style="fill:rgb(255,0,255);stroke:none;" />
  <ellipse cx="235.4081" cy="192.308" rx="5" ry="5" style="fill:rgb(255,0,255);stroke:none;" />
  <ellipse cx="260.735" cy="203.6479" rx="5" ry="5" style="fill:rgb(255,0,255);stroke:none;" />
  <ellipse cx="348.2123" cy="140.8716" rx="5" ry="5" style="fill:rgb(255,0,255);stroke:none;" />
  <ellipse cx="488.3687" cy="178.3943" rx="5" ry="5" style="fill:rgb(255,0,255);stroke:none;" />
  <ellipse cx="540.3471" cy="176.5148" rx="5" ry="5" style="fill:rgb(255,0,255);stroke:none;" />
  <ellipse cx="478.9708" cy="160.1607" rx="5" ry="5" style="fill:rgb(255,0,255);stroke:none;" />
  <ellipse cx="411.0889" cy="189.6215" rx="5" ry="5" style="fill:rgb(255,0,255);stroke:none;" />
  <ellipse cx="498.5048" cy="184.6165" rx="5" ry="5" style="fill:rgb(255,0,255);stroke:none;" />
  <ellipse cx="338.9624" cy="186.7885" rx="5" ry="5" style="fill:rgb(255,0,255);stroke:none;" />
  <ellipse cx="523.8062" cy="175.2688" rx="5" ry="5" style="fill:rgb(255,0,255);stroke:none;" />
  <ellipse cx="333.8204" cy="188.9484" rx="5" ry="5" style="fill:rgb(255,0,255);stroke:none;" />
  <ellipse cx="390.9408" cy="184.909" rx="5" ry="5" style="fill:rgb(255,0,255);stroke:none;" />
  <ellipse cx="416.2422" cy="175.5613" rx="5" ry="5" style="fill:rgb(255,0,255);stroke:none;" />
  <ellipse cx="551.0974" cy="162.9937" rx="5" ry="5" style="fill:rgb(255,0,255);stroke:none;" />
  <ellipse cx="411.0889" cy="189.6215" rx="5" ry="5" style="fill:rgb(255,0,255);stroke:none;" />
  <ellipse cx="566.3866" cy="155.1557" rx="5" ry="5" style="fill:rgb(255,0,255);stroke:none;" />
  <ellipse cx="586.5348" cy="159.8682" rx="5" ry="5" style="fill:rgb(255,0,255);stroke:none;" />
  <ellipse cx="336.1374" cy="188.5496" rx="5" ry="5" style="fill:rgb(255,0,255);stroke:none;" />
  <ellipse cx="413.4172" cy="177.3225" rx="5" ry="5" style="fill:rgb(255,0,255);stroke:none;" />
  <ellipse cx="500.833" cy="172.3175" rx="5" ry="5" style="fill:rgb(255,0,255);stroke:none;" />
  <ellipse cx="336.1374" cy="188.5496" rx="5" ry="5" style="fill:rgb(255,0,255);stroke:none;" />
  <ellipse cx="317.1012" cy="174.8714" rx="5" ry="5" style="fill:rgb(255,0,255);stroke:none;" />
  <ellipse cx="485.5438" cy="180.1554" rx="5" ry="5" style="fill:rgb(255,0,255);stroke:none;" />
  <ellipse cx="408.264" cy="191.3826" rx="5" ry="5" style="fill:rgb(255,0,255);stroke:none;" />
  <ellipse cx="408.264" cy="191.3826" rx="5" ry="5" style="fill:rgb(255,0,255);stroke:none;" />
  <ellipse cx="423.5532" cy="183.5446" rx="5" ry="5" style="fill:rgb(255,0,255);stroke:none;" />
  <ellipse cx="336.1374" cy="188.5496" rx="5" ry="5" style="fill:rgb(255,0,255);stroke:none;" />
  <ellipse cx="537.5221" cy="178.2759" rx="5" ry="5" style="fill:rgb(255,0,255);stroke:none;" />
  <ellipse cx="319.1959" cy="183.6776" rx="5" ry="5" style="fill:rgb(255,0,255);stroke:none;" />
  <ellipse cx="250.4461" cy="201.4195" rx="5" ry="5" style="fill:rgb(255,0,255);stroke:none;" />
  <ellipse cx="221.0355" cy="255.3074" rx="5" ry="5" style="fill:rgb(255,0,255);stroke:none;" />
  <ellipse cx="226.045" cy="180.9512" rx="5" ry="5" style="fill:rgb(255,0,255);stroke:none;" />
  <ellipse cx="198.6284" cy="343.0933" rx="5" ry="5" style="fill:rgb(255,0,255);stroke:none;" />
  <ellipse cx="239.7477" cy="294.3138" rx="5" ry="5" style="fill:rgb(255,0,255);stroke:none;" />
  <ellipse cx="239.7477" cy="294.3138" rx="5" ry="5" style="fill:rgb(255,0,255);stroke:none;" />
  <ellipse cx="239.7477" cy="294.3138" rx="5" ry="5" style="fill:rgb(255,0,255);stroke:none;" />
  <ellipse cx="198.6284" cy="343.0933" rx="5" ry="5" style="fill:rgb(255,0,255);stroke:none;" />
  <ellipse cx="397.5137" cy="204.9037" rx="5" ry="5" style="fill:rgb(255,0,255);stroke:none;" />
  <ellipse cx="402.6669" cy="190.8436" rx="5" ry="5" style="fill:rgb(255,0,255);stroke:none;" />
  <ellipse cx="474.7935" cy="193.6766" rx="5" ry="5" style="fill:rgb(255,0,255);stroke:none;" />
  <ellipse cx="402.6669" cy="190.8436" rx="5" ry="5" style="fill:rgb(255,0,255);stroke:none;" />
  <ellipse cx="322.8322" cy="195.3023" rx="5" ry="5" style="fill:rgb(255,0,255);stroke:none;" />
  <ellipse cx="210.9294" cy="308.5457" rx="5" ry="5" style="fill:rgb(255,0,255);stroke:none;" />
  <ellipse cx="210.9294" cy="308.5457" rx="5" ry="5" style="fill:rgb(255,0,255);stroke:none;" />
  <ellipse cx="210.9294" cy="308.5457" rx="5" ry="5" style="fill:rgb(255,0,255);stroke:none;" />
  <ellipse cx="232.2895" cy="252.7297" rx="5" ry="5" style="fill:rgb(255,0,255);stroke:none;" />
  <ellipse cx="337.5028" cy="204.0338" rx="5" ry="5" style="fill:rgb(255,0,255);stroke:none;" />
  <ellipse cx="422.8151" cy="195.556" rx="5" ry="5" style="fill:rgb(255,0,255);stroke:none;" />
  <ellipse cx="120.6422" cy="146.5268" rx="5" ry="5" style="fill:rgb(0,169,255);stroke:none;" />
  <ellipse cx="245.641" cy="92.4451" rx="5" ry="5" style="fill:rgb(0,169,255);stroke:none;" />
  <ellipse cx="132.2872" cy="118.2815" rx="5" ry="5" style="fill:rgb(0,169,255);stroke:none;" />
  <ellipse cx="142.1931" cy="71.6494" rx="5" ry="5" style="fill:rgb(0,169,255);stroke:none;" />
  <ellipse cx="350.2578" cy="84.0415" rx="5" ry="5" style="fill:rgb(0,169,255);stroke:none;" />
  <ellipse cx="195.1096" cy="104.7923" rx="5" ry="5" style="fill:rgb(0,169,255);stroke:none;" />
  <ellipse cx="256.4571" cy="113.7657" rx="5" ry="5" style="fill:rgb(0,169,255);stroke:none;" />
  <ellipse cx="211.1367" cy="53.7789" rx="5" ry="5" style="fill:rgb(0,169,255);stroke:none;" />
  <ellipse cx="76.676" cy="152.9188" rx="5" ry="5" style="fill:rgb(0,169,255);stroke:none;" />
  <ellipse cx="97.0253" cy="38.0131" rx="5" ry="5" style="fill:rgb(0,169,255);stroke:none;" />
  <ellipse cx="110.8885" cy="54.3239" rx="5" ry="5" style="fill:rgb(0,169,255);stroke:none;" />
  <ellipse cx="203.0192" cy="152.7494" rx="5" ry="5" style="fill:rgb(0,169,255);stroke:none;" />
  <ellipse cx="296.7236" cy="32.4308" rx="5" ry="5" style="fill:rgb(0,169,255);stroke:none;" />
  <ellipse cx="186.8969" cy="94.1047" rx="5" ry="5" style="fill:rgb(0,169,255);stroke:none;" />
  <ellipse cx="197.8091" cy="143.297" rx="5" ry="5" style="fill:rgb(0,169,255);stroke:none;" />
  <ellipse cx="192.6671" cy="145.4569" rx="5" ry="5" style="fill:rgb(0,169,255);stroke:none;" />
  <ellipse cx="214.3716" cy="152.5613" rx="5" ry="5" style="fill:rgb(0,169,255);stroke:none;" />
  <ellipse cx="271.4665" cy="127.8344" rx="5" ry="5" style="fill:rgb(0,169,255);stroke:none;" />
  <ellipse cx="251.222" cy="111.3727" rx="5" ry="5" style="fill:rgb(0,169,255);stroke:none;" />
  <ellipse cx="210.2655" cy="138.6644" rx="5" ry="5" style="fill:rgb(0,169,255);stroke:none;" />
  <ellipse cx="177.3495" cy="131.561" rx="5" ry="5" style="fill:rgb(84,170,0);stroke:none;" />
  <ellipse cx="233.7864" cy="109.3213" rx="5" ry="5" style="fill:rgb(84,170,0);stroke:none;" />
  <ellipse cx="181.8683" cy="105.119" rx="5" ry="5" style="fill:rgb(84,170,0);stroke:none;" />
  <ellipse cx="209.6362" cy="216.6242" rx="5" ry="5" style="fill:rgb(84,170,0);stroke:none;" />
  <ellipse cx="268.1186" cy="115.8637" rx="5" ry="5" style="fill:rgb(84,170,0);stroke:none;" />
  <ellipse cx="169.9453" cy="133.6001" rx="5" ry="5" style="fill:rgb(84,170,0);stroke:none;" />
  <ellipse cx="187.8258" cy="130.6193" rx="5" ry="5" style="fill:rgb(84,170,0);stroke:none;" />
  <ellipse cx="160.3226" cy="98.2973" rx="5" ry="5" style="fill:rgb(84,170,0);stroke:none;" />
  <ellipse cx="239.5286" cy="184.4855" rx="5" ry="5" style="fill:rgb(84,170,0);stroke:none;" />
  <ellipse cx="185.2979" cy="118.8534" rx="5" ry="5" style="fill:rgb(84,170,0);stroke:none;" />
  <ellipse cx="298.4218" cy="120.4796" rx="5" ry="5" style="fill:rgb(84,170,0);stroke:none;" />
  <ellipse cx="260.284" cy="153.6279" rx="5" ry="5" style="fill:rgb(84,170,0);stroke:none;" />
  <ellipse cx="242.66" cy="150.0204" rx="5" ry="5" style="fill:rgb(84,170,0);stroke:none;" />
  <ellipse cx="243.3507" cy="164.8598" rx="5" ry="5" style="fill:rgb(84,170,0);stroke:none;" />
  <ellipse cx="84.8531" cy="196.5999" rx="5" ry="5" style="fill:rgb(255,0,0);stroke:none;" />
  <ellipse cx="40.0178" cy="166.8396" rx="5" ry="5" style="fill:rgb(255,0,0);stroke:none;" />
  <ellipse cx="205.4755" cy="172.3164" rx="5" ry="5" style="fill:rgb(255,0,0);stroke:none;" />
  <ellipse cx="308.9344" cy="184.4999" rx="5" ry="5" style="fill:rgb(255,0,0);stroke:none;" />
  <ellipse cx="168.8769" cy="163.2853" rx="5" ry="5" style="fill:rgb(255,0,0);stroke:none;" />
  <ellipse cx="217.4966" cy="158.16" rx="5" ry="5" style="fill:rgb(255,0,0);stroke:none;" />
  <ellipse cx="228.5184" cy="183.5722" rx="5" ry="5" style="fill:rgb(255,0,0);stroke:none;" />
  <ellipse cx="247.5547" cy="197.2504" rx="5" ry="5" style="fill:rgb(255,0,0);stroke:none;" />
  <ellipse cx="232.6036" cy="190.809" rx="5" ry="5" style="fill:rgb(255,0,0);stroke:none;" />
  <ellipse cx="204.1868" cy="180.3767" rx="5" ry="5" style="fill:rgb(255,0,0);stroke:none;" />
  <text dominant-baseline="hanging" text-anchor="middle" transform="translate(313.249,8)" font-family="Segoe UI" font-size="18" font-weight="700" fill="black">Customer Segmentation</text>
  <polygon points="34.498,29.0795 592,29.0795 592,370.947 34.498,370.947" style="fill:none;stroke:black;stroke-width:1" />
  <polygon points="509.516,37.0795 584,37.0795 584,93.2915 509.516,93.2915" style="fill:none;stroke:none;" />
  <text dominant-baseline="hanging" text-anchor="start" transform="translate(537.516,45.0795)" font-family="Segoe UI" font-size="12" font-weight="400" fill="black">Cluster: 1</text>
  <ellipse cx="525.516" cy="50.106" rx="5" ry="5" style="fill:rgb(255,0,255);stroke:none;" />
  <text dominant-baseline="hanging" text-anchor="start" transform="translate(537.516,55.1325)" font-family="Segoe UI" font-size="12" font-weight="400" fill="black">Cluster: 2</text>
  <ellipse cx="525.516" cy="60.159" rx="5" ry="5" style="fill:rgb(0,169,255);stroke:none;" />
  <text dominant-baseline="hanging" text-anchor="start" transform="translate(537.516,65.1855)" font-family="Segoe UI" font-size="12" font-weight="400" fill="black">Cluster: 3</text>
  <ellipse cx="525.516" cy="70.212" rx="5" ry="5" style="fill:rgb(84,170,0);stroke:none;" />
  <text dominant-baseline="hanging" text-anchor="start" transform="translate(537.516,75.2385)" font-family="Segoe UI" font-size="12" font-weight="400" fill="black">Cluster: 4</text>
  <ellipse cx="525.516" cy="80.265" rx="5" ry="5" style="fill:rgb(255,0,0);stroke:none;" />
</svg>